# xmcd
#
# Track frame offsets:
#	150
#	16632
#	31337
#	35542
#	53771
#	69775
#	89864
#	93868
#	111854
#	125809
#	135245
#	151198
#	162688
#	172054
#	181597
#	191211
#	200235
#	215741
#	225601
#	234294
#	249998
#	258821
#	263897
#	272900
#	277762
#	284641
#	302214
#	324065
#
# Disc length: 4532 seconds
#
# Revision: 2
# Processed by: cddbd v1.5.2PL0 Copyright (c) Steve Scherf et al.
# Submitted via: EZCDAudioConverter 1.3.4.1
#
DISCID=8c11b21c
DTITLE=Hunter S. Thompson - The Gonzo Tapes 4/5
DYEAR=2008
DGENRE=
TTITLE0=This Microphone Wound Up Beneath Something Down There
TTITLE1=There's Signs Of Group Hysteria In The Passengers
TTITLE2=Some Are Just Weeping Now
TTITLE3=Well, The Beauty Of The Whole Thing...
TTITLE4=It's March 30 - Actually March 31
TTITLE5=The Piece Was Interrupted - The Piece Ended Here Because The Telephone 
TTITLE5=Went Out
TTITLE6=Have Found Thompson, He's With Kissinger
TTITLE7=They Still Can't Reach Me
TTITLE8=The Story Is Fear And Loathing In Acapulco
TTITLE9=Telephone Call Between Duke And Gonzo
TTITLE10=The Girls Are Laughing
TTITLE11=Here's The First Symptom Of This Goddamn Evil Drug
TTITLE12=I've Done What Most People Would Consider An Excessive Amount Of Coke
TTITLE13=This Is Wednesday Night, The Third Day Of Our Cocaine Experiment
TTITLE14=I Would Not Be Inclined
TTITLE15=There Appears To Be Some Minimal But At Least Noticeable Physical Or 
TTITLE15=Erotic Quality To It
TTITLE16=June 28. I Think It's A Friday
TTITLE17=We're Out Here, It's, Uh, I Don't Know What Time It Is, Sometime In T
TTITLE17=he Early Morning
TTITLE18=Yeah, We Should Just Relax For A Second
TTITLE19=Lying Down On The Bed In This Stinking Little Room
TTITLE20=I Have Every Reason To Believe That We Won't See The Fight Tonight
TTITLE21=Fiendish. The Thing Is So Bad There's No Way To Write A Story About I
TTITLE21=t
TTITLE22=Tomorrow Morning At 6 O'Clock In The Hotel Lobby... Many Ugly Little 
TTITLE22=Weird Scores Settled
TTITLE23=There's No Way You Can Conceive What's Going To Happen To Us Tonight
TTITLE24=Called A Meeting Here
TTITLE25=I Realize It's Difficult This Time Of Night
TTITLE26=We Really Have No Tickets
TTITLE27=Ladies And Gentlemen, The Captain Has Turned On The Seat Belt Sign
EXTD=
EXTT0=
EXTT1=
EXTT2=
EXTT3=
EXTT4=
EXTT5=
EXTT6=
EXTT7=
EXTT8=
EXTT9=
EXTT10=
EXTT11=
EXTT12=
EXTT13=
EXTT14=
EXTT15=
EXTT16=
EXTT17=
EXTT18=
EXTT19=
EXTT20=
EXTT21=
EXTT22=
EXTT23=
EXTT24=
EXTT25=
EXTT26=
EXTT27=
PLAYORDER=
